<mxfile host="app.diagrams.net" modified="2023-07-27T09:45:39.165Z" agent="Mozilla/5.0 (Macintosh; Intel Mac OS X 10_15_7) AppleWebKit/537.36 (KHTML, like Gecko) Chrome/113.0.0.0 Safari/537.36" etag="1RnN1Uu2hAPP5XtnwlY1" version="21.6.2" type="device">
  <diagram name="第 1 页" id="KDmnnWDfCZSjPPVvgTNR">
    <mxGraphModel dx="1259" dy="1777" grid="1" gridSize="10" guides="1" tooltips="1" connect="1" arrows="1" fold="1" page="1" pageScale="1" pageWidth="827" pageHeight="1169" math="0" shadow="0">
      <root>
        <mxCell id="0" />
        <mxCell id="1" parent="0" />
        <mxCell id="0_Hv43hvPQ8Ro73fSGsz-59" value="" style="rounded=0;whiteSpace=wrap;html=1;fillColor=#f5f5f5;strokeColor=#666666;fontColor=#333333;" parent="1" vertex="1">
          <mxGeometry x="70" y="-570" width="1190" height="1100" as="geometry" />
        </mxCell>
        <mxCell id="cZVeimrN27QPbhtuJZbX-4" value="" style="rounded=0;whiteSpace=wrap;html=1;fillColor=#dae8fc;strokeColor=#6c8ebf;" parent="1" vertex="1">
          <mxGeometry x="120" y="-400" width="1090" height="720" as="geometry" />
        </mxCell>
        <mxCell id="cZVeimrN27QPbhtuJZbX-6" value="" style="rounded=0;whiteSpace=wrap;html=1;fillColor=#dae8fc;strokeColor=#6c8ebf;" parent="1" vertex="1">
          <mxGeometry x="120" y="-520" width="1090" height="70" as="geometry" />
        </mxCell>
        <mxCell id="cZVeimrN27QPbhtuJZbX-7" value="" style="rounded=0;whiteSpace=wrap;html=1;fillColor=#dae8fc;strokeColor=#6c8ebf;" parent="1" vertex="1">
          <mxGeometry x="120" y="360" width="1090" height="70" as="geometry" />
        </mxCell>
        <mxCell id="cZVeimrN27QPbhtuJZbX-9" value="" style="rounded=0;whiteSpace=wrap;html=1;fillColor=#cce5ff;strokeColor=#36393d;" parent="1" vertex="1">
          <mxGeometry x="180" y="-360" width="400" height="660" as="geometry" />
        </mxCell>
        <mxCell id="cZVeimrN27QPbhtuJZbX-10" value="pod/kafka-subscriber-0" style="text;html=1;strokeColor=none;fillColor=none;align=center;verticalAlign=middle;whiteSpace=wrap;rounded=0;fontStyle=1" parent="1" vertex="1">
          <mxGeometry x="126" y="-396" width="152" height="30" as="geometry" />
        </mxCell>
        <mxCell id="0_Hv43hvPQ8Ro73fSGsz-1" value="FilterBatchMessageDispatcher&lt;br&gt;(single instance per pipeline)" style="text;html=1;strokeColor=none;fillColor=none;align=center;verticalAlign=middle;whiteSpace=wrap;rounded=0;" parent="1" vertex="1">
          <mxGeometry x="196" y="-350" width="170" height="30" as="geometry" />
        </mxCell>
        <mxCell id="0_Hv43hvPQ8Ro73fSGsz-2" value="" style="rounded=0;whiteSpace=wrap;html=1;fillColor=#cce5ff;strokeColor=#36393d;" parent="1" vertex="1">
          <mxGeometry x="740" y="-360" width="410" height="660" as="geometry" />
        </mxCell>
        <mxCell id="0_Hv43hvPQ8Ro73fSGsz-3" value="SinkSubscriberBatchMessageDispatcher&lt;br&gt;(multi instance per pipeline)" style="text;html=1;strokeColor=none;fillColor=none;align=center;verticalAlign=middle;whiteSpace=wrap;rounded=0;" parent="1" vertex="1">
          <mxGeometry x="750" y="-350" width="220" height="30" as="geometry" />
        </mxCell>
        <mxCell id="0_Hv43hvPQ8Ro73fSGsz-4" value="" style="rounded=0;whiteSpace=wrap;html=1;fillColor=#cce5ff;strokeColor=#36393d;" parent="1" vertex="1">
          <mxGeometry x="199" y="-60" width="100" height="90" as="geometry" />
        </mxCell>
        <mxCell id="0_Hv43hvPQ8Ro73fSGsz-5" value="" style="rounded=0;whiteSpace=wrap;html=1;fillColor=#cce5ff;strokeColor=#36393d;" parent="1" vertex="1">
          <mxGeometry x="325" y="-60" width="106" height="90" as="geometry" />
        </mxCell>
        <mxCell id="0_Hv43hvPQ8Ro73fSGsz-6" value="" style="rounded=0;whiteSpace=wrap;html=1;fillColor=#cce5ff;strokeColor=#36393d;" parent="1" vertex="1">
          <mxGeometry x="450" y="-60" width="100" height="90" as="geometry" />
        </mxCell>
        <mxCell id="0_Hv43hvPQ8Ro73fSGsz-9" value="sharedNon&lt;br&gt;Sequence&lt;br&gt;FilterExecutor&lt;br&gt;(poolSize=N)" style="text;html=1;align=center;verticalAlign=middle;resizable=0;points=[];autosize=1;strokeColor=none;fillColor=none;" parent="1" vertex="1">
          <mxGeometry x="199" y="-50" width="100" height="70" as="geometry" />
        </mxCell>
        <mxCell id="0_Hv43hvPQ8Ro73fSGsz-10" value="isolation&lt;br&gt;Sequence&lt;br&gt;FilterExecutor_0&lt;br&gt;(poolSize=1)" style="text;html=1;align=center;verticalAlign=middle;resizable=0;points=[];autosize=1;strokeColor=none;fillColor=none;" parent="1" vertex="1">
          <mxGeometry x="325" y="-50" width="110" height="70" as="geometry" />
        </mxCell>
        <mxCell id="0_Hv43hvPQ8Ro73fSGsz-11" value="isolation&lt;br&gt;Sequence&lt;br&gt;FilterExecutor_1&lt;br&gt;(poolSize=1)" style="text;html=1;align=center;verticalAlign=middle;resizable=0;points=[];autosize=1;strokeColor=none;fillColor=none;" parent="1" vertex="1">
          <mxGeometry x="444" y="-50" width="110" height="70" as="geometry" />
        </mxCell>
        <mxCell id="0_Hv43hvPQ8Ro73fSGsz-70" value="" style="edgeStyle=orthogonalEdgeStyle;rounded=0;orthogonalLoop=1;jettySize=auto;html=1;dashed=1;fillColor=#f5f5f5;strokeColor=#666666;" parent="1" edge="1">
          <mxGeometry relative="1" as="geometry">
            <mxPoint x="247" y="250" as="sourcePoint" />
            <mxPoint x="690" y="-450" as="targetPoint" />
            <Array as="points">
              <mxPoint x="247" y="290" />
              <mxPoint x="690" y="290" />
              <mxPoint x="690" y="-450" />
            </Array>
          </mxGeometry>
        </mxCell>
        <mxCell id="0_Hv43hvPQ8Ro73fSGsz-78" value="filtered topic of&lt;br style=&quot;border-color: var(--border-color);&quot;&gt;subscriber_2" style="edgeLabel;html=1;align=center;verticalAlign=middle;resizable=0;points=[];" parent="0_Hv43hvPQ8Ro73fSGsz-70" vertex="1" connectable="0">
          <mxGeometry x="0.2478" y="1" relative="1" as="geometry">
            <mxPoint as="offset" />
          </mxGeometry>
        </mxCell>
        <mxCell id="0_Hv43hvPQ8Ro73fSGsz-12" value="" style="rounded=0;whiteSpace=wrap;html=1;fillColor=#cce5ff;strokeColor=#36393d;" parent="1" vertex="1">
          <mxGeometry x="200" y="160" width="100" height="90" as="geometry" />
        </mxCell>
        <mxCell id="0_Hv43hvPQ8Ro73fSGsz-13" value="" style="rounded=0;whiteSpace=wrap;html=1;fillColor=#cce5ff;strokeColor=#36393d;" parent="1" vertex="1">
          <mxGeometry x="325" y="160" width="100" height="90" as="geometry" />
        </mxCell>
        <mxCell id="0_Hv43hvPQ8Ro73fSGsz-14" value="" style="rounded=0;whiteSpace=wrap;html=1;fillColor=#cce5ff;strokeColor=#36393d;" parent="1" vertex="1">
          <mxGeometry x="450" y="160" width="100" height="90" as="geometry" />
        </mxCell>
        <mxCell id="0_Hv43hvPQ8Ro73fSGsz-15" value="filtered&lt;br&gt;Checkpoint&lt;br&gt;Producer_0" style="text;html=1;align=center;verticalAlign=middle;resizable=0;points=[];autosize=1;strokeColor=none;fillColor=none;" parent="1" vertex="1">
          <mxGeometry x="205" y="175" width="90" height="60" as="geometry" />
        </mxCell>
        <mxCell id="0_Hv43hvPQ8Ro73fSGsz-16" value="filtered&lt;br&gt;Checkpoint&lt;br&gt;Producer_1" style="text;html=1;align=center;verticalAlign=middle;resizable=0;points=[];autosize=1;strokeColor=none;fillColor=none;" parent="1" vertex="1">
          <mxGeometry x="330" y="175" width="90" height="60" as="geometry" />
        </mxCell>
        <mxCell id="0_Hv43hvPQ8Ro73fSGsz-17" value="filtered&lt;br&gt;Checkpoint&lt;br&gt;Producer_2" style="text;html=1;align=center;verticalAlign=middle;resizable=0;points=[];autosize=1;strokeColor=none;fillColor=none;" parent="1" vertex="1">
          <mxGeometry x="455" y="175" width="90" height="60" as="geometry" />
        </mxCell>
        <mxCell id="0_Hv43hvPQ8Ro73fSGsz-18" value="..." style="text;html=1;align=center;verticalAlign=middle;resizable=0;points=[];autosize=1;strokeColor=none;fillColor=none;" parent="1" vertex="1">
          <mxGeometry x="550" width="30" height="30" as="geometry" />
        </mxCell>
        <mxCell id="0_Hv43hvPQ8Ro73fSGsz-19" value="..." style="text;html=1;align=center;verticalAlign=middle;resizable=0;points=[];autosize=1;strokeColor=none;fillColor=none;" parent="1" vertex="1">
          <mxGeometry x="550" y="220" width="30" height="30" as="geometry" />
        </mxCell>
        <mxCell id="0_Hv43hvPQ8Ro73fSGsz-20" value="" style="rounded=0;whiteSpace=wrap;html=1;fillColor=#cce5ff;strokeColor=#36393d;" parent="1" vertex="1">
          <mxGeometry x="199" y="70" width="351" height="50" as="geometry" />
        </mxCell>
        <mxCell id="0_Hv43hvPQ8Ro73fSGsz-22" value="" style="rounded=0;whiteSpace=wrap;html=1;fillColor=#cce5ff;strokeColor=#36393d;" parent="1" vertex="1">
          <mxGeometry x="199" y="-237" width="351" height="47" as="geometry" />
        </mxCell>
        <mxCell id="0_Hv43hvPQ8Ro73fSGsz-23" value="matchToSubscriberRecords(originalRecords)" style="text;html=1;align=center;verticalAlign=middle;resizable=0;points=[];autosize=1;strokeColor=none;fillColor=none;" parent="1" vertex="1">
          <mxGeometry x="250" y="-228.5" width="260" height="30" as="geometry" />
        </mxCell>
        <mxCell id="0_Hv43hvPQ8Ro73fSGsz-26" value="" style="rounded=0;whiteSpace=wrap;html=1;fillColor=#cce5ff;strokeColor=#36393d;" parent="1" vertex="1">
          <mxGeometry x="199" y="-150" width="351" height="50" as="geometry" />
        </mxCell>
        <mxCell id="0_Hv43hvPQ8Ro73fSGsz-27" value="determineFilterExecutor(originalRecord&lt;span style=&quot;background-color: initial;&quot;&gt;)&lt;/span&gt;" style="text;html=1;align=center;verticalAlign=middle;resizable=0;points=[];autosize=1;strokeColor=none;fillColor=none;" parent="1" vertex="1">
          <mxGeometry x="258" y="-140" width="240" height="30" as="geometry" />
        </mxCell>
        <mxCell id="0_Hv43hvPQ8Ro73fSGsz-30" value="" style="rounded=0;whiteSpace=wrap;html=1;fillColor=#cce5ff;strokeColor=#36393d;" parent="1" vertex="1">
          <mxGeometry x="199" y="-310" width="351" height="40" as="geometry" />
        </mxCell>
        <mxCell id="0_Hv43hvPQ8Ro73fSGsz-31" value="" style="rounded=0;whiteSpace=wrap;html=1;fillColor=#cce5ff;strokeColor=#36393d;" parent="1" vertex="1">
          <mxGeometry x="762.5" y="-310" width="350" height="40" as="geometry" />
        </mxCell>
        <mxCell id="0_Hv43hvPQ8Ro73fSGsz-32" value="doOnMessage(originalRecords)" style="text;html=1;align=center;verticalAlign=middle;resizable=0;points=[];autosize=1;strokeColor=none;fillColor=none;" parent="1" vertex="1">
          <mxGeometry x="285" y="-305" width="190" height="30" as="geometry" />
        </mxCell>
        <mxCell id="0_Hv43hvPQ8Ro73fSGsz-33" value="doOnMessage(filteredRecords)" style="text;html=1;align=center;verticalAlign=middle;resizable=0;points=[];autosize=1;strokeColor=none;fillColor=none;" parent="1" vertex="1">
          <mxGeometry x="845" y="-305" width="190" height="30" as="geometry" />
        </mxCell>
        <mxCell id="0_Hv43hvPQ8Ro73fSGsz-38" value="" style="rounded=0;whiteSpace=wrap;html=1;fillColor=#cce5ff;strokeColor=#36393d;" parent="1" vertex="1">
          <mxGeometry x="762.5" y="-200" width="351" height="50" as="geometry" />
        </mxCell>
        <mxCell id="0_Hv43hvPQ8Ro73fSGsz-39" value="determineSinkExecutor(filteredRecord&lt;span style=&quot;background-color: initial;&quot;&gt;)&lt;/span&gt;" style="text;html=1;align=center;verticalAlign=middle;resizable=0;points=[];autosize=1;strokeColor=none;fillColor=none;rounded=0;" parent="1" vertex="1">
          <mxGeometry x="825" y="-190" width="230" height="30" as="geometry" />
        </mxCell>
        <mxCell id="0_Hv43hvPQ8Ro73fSGsz-40" value="" style="rounded=0;whiteSpace=wrap;html=1;fillColor=#cce5ff;strokeColor=#36393d;" parent="1" vertex="1">
          <mxGeometry x="762.5" y="-60" width="100" height="90" as="geometry" />
        </mxCell>
        <mxCell id="0_Hv43hvPQ8Ro73fSGsz-41" value="" style="rounded=0;whiteSpace=wrap;html=1;fillColor=#cce5ff;strokeColor=#36393d;" parent="1" vertex="1">
          <mxGeometry x="892" y="-60" width="106" height="90" as="geometry" />
        </mxCell>
        <mxCell id="0_Hv43hvPQ8Ro73fSGsz-42" value="" style="rounded=0;whiteSpace=wrap;html=1;fillColor=#cce5ff;strokeColor=#36393d;" parent="1" vertex="1">
          <mxGeometry x="1015" y="-60" width="105" height="90" as="geometry" />
        </mxCell>
        <mxCell id="0_Hv43hvPQ8Ro73fSGsz-43" value="sharedNon&lt;br style=&quot;border-color: var(--border-color);&quot;&gt;Sequence&lt;br style=&quot;border-color: var(--border-color);&quot;&gt;SinkExecutor" style="text;html=1;align=center;verticalAlign=middle;resizable=0;points=[];autosize=1;strokeColor=none;fillColor=none;" parent="1" vertex="1">
          <mxGeometry x="770" y="-45" width="90" height="60" as="geometry" />
        </mxCell>
        <mxCell id="0_Hv43hvPQ8Ro73fSGsz-44" value="isolation&lt;br&gt;Sequence&lt;br&gt;SinkExecutor_0" style="text;html=1;align=center;verticalAlign=middle;resizable=0;points=[];autosize=1;strokeColor=none;fillColor=none;" parent="1" vertex="1">
          <mxGeometry x="891" y="-45" width="110" height="60" as="geometry" />
        </mxCell>
        <mxCell id="0_Hv43hvPQ8Ro73fSGsz-45" value="isolation&lt;br&gt;Sequence&lt;br&gt;SinkExecutor_1" style="text;html=1;align=center;verticalAlign=middle;resizable=0;points=[];autosize=1;strokeColor=none;fillColor=none;" parent="1" vertex="1">
          <mxGeometry x="1011" y="-45" width="110" height="60" as="geometry" />
        </mxCell>
        <mxCell id="0_Hv43hvPQ8Ro73fSGsz-46" value="..." style="text;html=1;align=center;verticalAlign=middle;resizable=0;points=[];autosize=1;strokeColor=none;fillColor=none;" parent="1" vertex="1">
          <mxGeometry x="1113.5" width="30" height="30" as="geometry" />
        </mxCell>
        <mxCell id="0_Hv43hvPQ8Ro73fSGsz-47" value="" style="rounded=0;whiteSpace=wrap;html=1;fillColor=#cce5ff;strokeColor=#36393d;dashed=1;" parent="1" vertex="1">
          <mxGeometry x="764" y="70" width="356" height="70" as="geometry" />
        </mxCell>
        <mxCell id="0_Hv43hvPQ8Ro73fSGsz-48" value="determineXxxProducer(subscriber, key)&lt;br&gt;or apiClient(subscriber, key)&lt;span style=&quot;background-color: initial;&quot;&gt;&lt;br&gt;&lt;/span&gt;" style="text;html=1;align=center;verticalAlign=middle;resizable=0;points=[];autosize=1;strokeColor=none;fillColor=none;" parent="1" vertex="1">
          <mxGeometry x="833" y="95" width="230" height="40" as="geometry" />
        </mxCell>
        <mxCell id="0_Hv43hvPQ8Ro73fSGsz-50" value="" style="rounded=0;whiteSpace=wrap;html=1;fillColor=#cce5ff;strokeColor=#36393d;dashed=1;" parent="1" vertex="1">
          <mxGeometry x="768" y="180" width="100" height="70" as="geometry" />
        </mxCell>
        <mxCell id="0_Hv43hvPQ8Ro73fSGsz-51" value="" style="rounded=0;whiteSpace=wrap;html=1;fillColor=#cce5ff;strokeColor=#36393d;dashed=1;" parent="1" vertex="1">
          <mxGeometry x="896" y="180" width="100" height="70" as="geometry" />
        </mxCell>
        <mxCell id="0_Hv43hvPQ8Ro73fSGsz-52" value="" style="rounded=0;whiteSpace=wrap;html=1;fillColor=#cce5ff;strokeColor=#36393d;dashed=1;" parent="1" vertex="1">
          <mxGeometry x="1015" y="180" width="100" height="70" as="geometry" />
        </mxCell>
        <mxCell id="0_Hv43hvPQ8Ro73fSGsz-53" value="sender_0" style="text;html=1;align=center;verticalAlign=middle;resizable=0;points=[];autosize=1;strokeColor=none;fillColor=none;" parent="1" vertex="1">
          <mxGeometry x="783" y="195" width="70" height="30" as="geometry" />
        </mxCell>
        <mxCell id="0_Hv43hvPQ8Ro73fSGsz-54" value="sender_1" style="text;html=1;align=center;verticalAlign=middle;resizable=0;points=[];autosize=1;strokeColor=none;fillColor=none;" parent="1" vertex="1">
          <mxGeometry x="913.5" y="195" width="70" height="30" as="geometry" />
        </mxCell>
        <mxCell id="0_Hv43hvPQ8Ro73fSGsz-55" value="sender_2" style="text;html=1;align=center;verticalAlign=middle;resizable=0;points=[];autosize=1;strokeColor=none;fillColor=none;" parent="1" vertex="1">
          <mxGeometry x="1032.5" y="195" width="70" height="30" as="geometry" />
        </mxCell>
        <mxCell id="0_Hv43hvPQ8Ro73fSGsz-56" value="..." style="text;html=1;align=center;verticalAlign=middle;resizable=0;points=[];autosize=1;strokeColor=none;fillColor=none;" parent="1" vertex="1">
          <mxGeometry x="1080" y="220" width="30" height="30" as="geometry" />
        </mxCell>
        <mxCell id="0_Hv43hvPQ8Ro73fSGsz-60" value="" style="rounded=0;whiteSpace=wrap;html=1;dashed=1;fillColor=#dae8fc;strokeColor=#6c8ebf;" parent="1" vertex="1">
          <mxGeometry x="935" y="495" width="70" height="20" as="geometry" />
        </mxCell>
        <mxCell id="0_Hv43hvPQ8Ro73fSGsz-61" value="" style="rounded=0;whiteSpace=wrap;html=1;fillColor=#dae8fc;strokeColor=#6c8ebf;" parent="1" vertex="1">
          <mxGeometry x="935" y="460" width="70" height="20" as="geometry" />
        </mxCell>
        <mxCell id="0_Hv43hvPQ8Ro73fSGsz-62" value="framework handler component" style="text;html=1;align=center;verticalAlign=middle;resizable=0;points=[];autosize=1;strokeColor=none;fillColor=none;" parent="1" vertex="1">
          <mxGeometry x="1015" y="455" width="190" height="30" as="geometry" />
        </mxCell>
        <mxCell id="0_Hv43hvPQ8Ro73fSGsz-63" value="example custom handler component" style="text;html=1;align=center;verticalAlign=middle;resizable=0;points=[];autosize=1;strokeColor=none;fillColor=none;" parent="1" vertex="1">
          <mxGeometry x="1015" y="490" width="220" height="30" as="geometry" />
        </mxCell>
        <mxCell id="0_Hv43hvPQ8Ro73fSGsz-66" value="" style="endArrow=classic;html=1;rounded=0;entryX=0.839;entryY=-0.029;entryDx=0;entryDy=0;entryPerimeter=0;dashed=1;fillColor=#f5f5f5;strokeColor=#666666;" parent="1" edge="1">
          <mxGeometry width="50" height="50" relative="1" as="geometry">
            <mxPoint x="1066" y="250" as="sourcePoint" />
            <mxPoint x="1064.5100000000002" y="357.9699999999998" as="targetPoint" />
            <Array as="points" />
          </mxGeometry>
        </mxCell>
        <mxCell id="0_Hv43hvPQ8Ro73fSGsz-67" value="" style="endArrow=classic;html=1;rounded=0;dashed=1;fillColor=#f5f5f5;strokeColor=#666666;" parent="1" edge="1">
          <mxGeometry width="50" height="50" relative="1" as="geometry">
            <mxPoint x="940" y="252" as="sourcePoint" />
            <mxPoint x="939" y="360" as="targetPoint" />
            <Array as="points" />
          </mxGeometry>
        </mxCell>
        <mxCell id="0_Hv43hvPQ8Ro73fSGsz-68" value="" style="endArrow=classic;html=1;rounded=0;dashed=1;fillColor=#f5f5f5;strokeColor=#666666;entryX=0.642;entryY=-0.011;entryDx=0;entryDy=0;entryPerimeter=0;" parent="1" target="cZVeimrN27QPbhtuJZbX-7" edge="1">
          <mxGeometry width="50" height="50" relative="1" as="geometry">
            <mxPoint x="820" y="252" as="sourcePoint" />
            <mxPoint x="810" y="360" as="targetPoint" />
            <Array as="points" />
          </mxGeometry>
        </mxCell>
        <mxCell id="0_Hv43hvPQ8Ro73fSGsz-71" value="" style="edgeStyle=orthogonalEdgeStyle;rounded=0;orthogonalLoop=1;jettySize=auto;html=1;dashed=1;fillColor=#f5f5f5;strokeColor=#666666;" parent="1" edge="1">
          <mxGeometry relative="1" as="geometry">
            <mxPoint x="371" y="250" as="sourcePoint" />
            <mxPoint x="650" y="-450" as="targetPoint" />
            <Array as="points">
              <mxPoint x="371" y="280" />
              <mxPoint x="650" y="280" />
              <mxPoint x="650" y="-450" />
            </Array>
          </mxGeometry>
        </mxCell>
        <mxCell id="0_Hv43hvPQ8Ro73fSGsz-77" value="filtered topic of&lt;br style=&quot;border-color: var(--border-color);&quot;&gt;subscriber_1" style="edgeLabel;html=1;align=center;verticalAlign=middle;resizable=0;points=[];" parent="0_Hv43hvPQ8Ro73fSGsz-71" vertex="1" connectable="0">
          <mxGeometry x="0.2551" relative="1" as="geometry">
            <mxPoint y="19" as="offset" />
          </mxGeometry>
        </mxCell>
        <mxCell id="0_Hv43hvPQ8Ro73fSGsz-73" value="" style="edgeStyle=orthogonalEdgeStyle;rounded=0;orthogonalLoop=1;jettySize=auto;html=1;dashed=1;fillColor=#f5f5f5;strokeColor=#666666;" parent="1" edge="1">
          <mxGeometry relative="1" as="geometry">
            <mxPoint x="498" y="250" as="sourcePoint" />
            <mxPoint x="610" y="-450" as="targetPoint" />
            <Array as="points">
              <mxPoint x="498" y="270" />
              <mxPoint x="610" y="270" />
              <mxPoint x="610" y="-450" />
            </Array>
          </mxGeometry>
        </mxCell>
        <mxCell id="0_Hv43hvPQ8Ro73fSGsz-76" value="filtered topic of&lt;br&gt;subscriber_0" style="edgeLabel;html=1;align=center;verticalAlign=middle;resizable=0;points=[];" parent="0_Hv43hvPQ8Ro73fSGsz-73" vertex="1" connectable="0">
          <mxGeometry x="0.1714" relative="1" as="geometry">
            <mxPoint as="offset" />
          </mxGeometry>
        </mxCell>
        <mxCell id="0_Hv43hvPQ8Ro73fSGsz-79" value="" style="endArrow=classic;html=1;rounded=0;dashed=1;fillColor=#f5f5f5;strokeColor=#666666;" parent="1" edge="1">
          <mxGeometry width="50" height="50" relative="1" as="geometry">
            <mxPoint x="374.31" y="-270" as="sourcePoint" />
            <mxPoint x="374.31" y="-237" as="targetPoint" />
            <Array as="points" />
          </mxGeometry>
        </mxCell>
        <mxCell id="0_Hv43hvPQ8Ro73fSGsz-80" value="" style="endArrow=classic;html=1;rounded=0;dashed=1;fillColor=#f5f5f5;strokeColor=#666666;entryX=0.476;entryY=-0.033;entryDx=0;entryDy=0;entryPerimeter=0;" parent="1" edge="1">
          <mxGeometry width="50" height="50" relative="1" as="geometry">
            <mxPoint x="374.31" y="-190" as="sourcePoint" />
            <mxPoint x="374.38600000000014" y="-151.64999999999986" as="targetPoint" />
            <Array as="points" />
          </mxGeometry>
        </mxCell>
        <mxCell id="0_Hv43hvPQ8Ro73fSGsz-81" value="" style="endArrow=classic;html=1;rounded=1;dashed=1;fillColor=#f5f5f5;strokeColor=#666666;entryX=0.476;entryY=-0.033;entryDx=0;entryDy=0;entryPerimeter=0;exitX=0.5;exitY=1;exitDx=0;exitDy=0;" parent="1" source="0_Hv43hvPQ8Ro73fSGsz-26" edge="1">
          <mxGeometry width="50" height="50" relative="1" as="geometry">
            <mxPoint x="250" y="-98" as="sourcePoint" />
            <mxPoint x="250" y="-60" as="targetPoint" />
            <Array as="points" />
          </mxGeometry>
        </mxCell>
        <mxCell id="0_Hv43hvPQ8Ro73fSGsz-82" value="" style="endArrow=classic;html=1;rounded=1;dashed=1;fillColor=#f5f5f5;strokeColor=#666666;entryX=0.5;entryY=0;entryDx=0;entryDy=0;exitX=0.5;exitY=1;exitDx=0;exitDy=0;" parent="1" source="0_Hv43hvPQ8Ro73fSGsz-26" target="0_Hv43hvPQ8Ro73fSGsz-6" edge="1">
          <mxGeometry width="50" height="50" relative="1" as="geometry">
            <mxPoint x="612" y="-100" as="sourcePoint" />
            <mxPoint x="500" y="-62" as="targetPoint" />
            <Array as="points" />
          </mxGeometry>
        </mxCell>
        <mxCell id="0_Hv43hvPQ8Ro73fSGsz-83" value="" style="endArrow=classic;html=1;rounded=0;dashed=1;fillColor=#f5f5f5;strokeColor=#666666;entryX=0.476;entryY=-0.033;entryDx=0;entryDy=0;entryPerimeter=0;" parent="1" edge="1">
          <mxGeometry width="50" height="50" relative="1" as="geometry">
            <mxPoint x="374.31" y="-100" as="sourcePoint" />
            <mxPoint x="374.38600000000014" y="-61.649999999999864" as="targetPoint" />
            <Array as="points" />
          </mxGeometry>
        </mxCell>
        <mxCell id="0_Hv43hvPQ8Ro73fSGsz-84" value="" style="endArrow=classic;html=1;rounded=0;dashed=1;fillColor=#f5f5f5;strokeColor=#666666;entryX=0.5;entryY=0;entryDx=0;entryDy=0;" parent="1" target="T0fwYKVUz0fpA-iBK2D4-7" edge="1">
          <mxGeometry width="50" height="50" relative="1" as="geometry">
            <mxPoint x="374.22" y="30" as="sourcePoint" />
            <mxPoint x="374.29600000000016" y="68.35000000000014" as="targetPoint" />
            <Array as="points" />
          </mxGeometry>
        </mxCell>
        <mxCell id="0_Hv43hvPQ8Ro73fSGsz-85" value="" style="endArrow=classic;html=1;rounded=0;dashed=1;fillColor=#f5f5f5;strokeColor=#666666;entryX=0.476;entryY=-0.033;entryDx=0;entryDy=0;entryPerimeter=0;" parent="1" edge="1">
          <mxGeometry width="50" height="50" relative="1" as="geometry">
            <mxPoint x="250.00000000000003" y="31.65" as="sourcePoint" />
            <mxPoint x="250.07600000000016" y="70.00000000000014" as="targetPoint" />
            <Array as="points" />
          </mxGeometry>
        </mxCell>
        <mxCell id="0_Hv43hvPQ8Ro73fSGsz-86" value="" style="endArrow=classic;html=1;rounded=0;dashed=1;fillColor=#f5f5f5;strokeColor=#666666;entryX=0.479;entryY=0.064;entryDx=0;entryDy=0;entryPerimeter=0;" parent="1" target="T0fwYKVUz0fpA-iBK2D4-7" edge="1">
          <mxGeometry width="50" height="50" relative="1" as="geometry">
            <mxPoint x="498" y="31.65" as="sourcePoint" />
            <mxPoint x="498.07600000000014" y="70.00000000000014" as="targetPoint" />
            <Array as="points" />
          </mxGeometry>
        </mxCell>
        <mxCell id="0_Hv43hvPQ8Ro73fSGsz-87" value="" style="endArrow=classic;html=1;rounded=0;dashed=1;fillColor=#f5f5f5;strokeColor=#666666;entryX=0.476;entryY=-0.033;entryDx=0;entryDy=0;entryPerimeter=0;" parent="1" edge="1">
          <mxGeometry width="50" height="50" relative="1" as="geometry">
            <mxPoint x="375" y="120" as="sourcePoint" />
            <mxPoint x="374.29600000000016" y="160.00000000000014" as="targetPoint" />
            <Array as="points" />
          </mxGeometry>
        </mxCell>
        <mxCell id="0_Hv43hvPQ8Ro73fSGsz-88" value="" style="endArrow=classic;html=1;rounded=0;dashed=1;fillColor=#f5f5f5;strokeColor=#666666;entryX=0.5;entryY=0;entryDx=0;entryDy=0;exitX=0.485;exitY=1.023;exitDx=0;exitDy=0;exitPerimeter=0;" parent="1" source="T0fwYKVUz0fpA-iBK2D4-10" target="0_Hv43hvPQ8Ro73fSGsz-14" edge="1">
          <mxGeometry width="50" height="50" relative="1" as="geometry">
            <mxPoint x="390" y="120" as="sourcePoint" />
            <mxPoint x="498.07600000000014" y="160.00000000000014" as="targetPoint" />
            <Array as="points" />
          </mxGeometry>
        </mxCell>
        <mxCell id="0_Hv43hvPQ8Ro73fSGsz-89" value="" style="endArrow=classic;html=1;rounded=0;dashed=1;fillColor=#f5f5f5;strokeColor=#666666;entryX=0.5;entryY=0;entryDx=0;entryDy=0;exitX=0.5;exitY=1;exitDx=0;exitDy=0;" parent="1" source="0_Hv43hvPQ8Ro73fSGsz-20" target="0_Hv43hvPQ8Ro73fSGsz-12" edge="1">
          <mxGeometry width="50" height="50" relative="1" as="geometry">
            <mxPoint x="380" y="120" as="sourcePoint" />
            <mxPoint x="510" y="170" as="targetPoint" />
            <Array as="points" />
          </mxGeometry>
        </mxCell>
        <mxCell id="0_Hv43hvPQ8Ro73fSGsz-90" value="Physical architecture of overview Kafka-Subscriber data flow processing model" style="text;html=1;align=center;verticalAlign=middle;resizable=0;points=[];autosize=1;strokeColor=none;fillColor=none;fontStyle=1" parent="1" vertex="1">
          <mxGeometry x="74" y="-560" width="480" height="30" as="geometry" />
        </mxCell>
        <mxCell id="0_Hv43hvPQ8Ro73fSGsz-91" value="" style="endArrow=classic;html=1;rounded=0;dashed=1;fillColor=#f5f5f5;strokeColor=#666666;entryX=0.521;entryY=0.032;entryDx=0;entryDy=0;entryPerimeter=0;exitX=0.756;exitY=0.981;exitDx=0;exitDy=0;exitPerimeter=0;" parent="1" source="cZVeimrN27QPbhtuJZbX-6" target="0_Hv43hvPQ8Ro73fSGsz-31" edge="1">
          <mxGeometry width="50" height="50" relative="1" as="geometry">
            <mxPoint x="945.55" y="-440" as="sourcePoint" />
            <mxPoint x="945.6299999999999" y="-340" as="targetPoint" />
            <Array as="points" />
          </mxGeometry>
        </mxCell>
        <mxCell id="0_Hv43hvPQ8Ro73fSGsz-92" value="" style="endArrow=classic;html=1;rounded=0;dashed=1;fillColor=#f5f5f5;strokeColor=#666666;entryX=0.469;entryY=-0.145;entryDx=0;entryDy=0;entryPerimeter=0;" parent="1" target="0_Hv43hvPQ8Ro73fSGsz-32" edge="1">
          <mxGeometry width="50" height="50" relative="1" as="geometry">
            <mxPoint x="374.54999999999995" y="-450" as="sourcePoint" />
            <mxPoint x="374.6299999999999" y="-350" as="targetPoint" />
            <Array as="points" />
          </mxGeometry>
        </mxCell>
        <mxCell id="0_Hv43hvPQ8Ro73fSGsz-93" value="e.g topic pattern = shared_input_.*" style="edgeLabel;html=1;align=center;verticalAlign=middle;resizable=0;points=[];" parent="0_Hv43hvPQ8Ro73fSGsz-92" vertex="1" connectable="0">
          <mxGeometry x="-0.603" y="-2" relative="1" as="geometry">
            <mxPoint x="2" y="2" as="offset" />
          </mxGeometry>
        </mxCell>
        <mxCell id="0_Hv43hvPQ8Ro73fSGsz-97" value="e.g topic = isolation_subscriber_0" style="edgeLabel;html=1;align=center;verticalAlign=middle;resizable=0;points=[];" parent="1" vertex="1" connectable="0">
          <mxGeometry x="939.5018481132736" y="-420.00457635223523" as="geometry">
            <mxPoint x="-5" as="offset" />
          </mxGeometry>
        </mxCell>
        <mxCell id="0_Hv43hvPQ8Ro73fSGsz-99" value="" style="endArrow=classic;html=1;rounded=0;dashed=1;fillColor=#f5f5f5;strokeColor=#666666;" parent="1" edge="1">
          <mxGeometry width="50" height="50" relative="1" as="geometry">
            <mxPoint x="944.77" y="-270" as="sourcePoint" />
            <mxPoint x="945" y="-200" as="targetPoint" />
            <Array as="points" />
          </mxGeometry>
        </mxCell>
        <mxCell id="0_Hv43hvPQ8Ro73fSGsz-100" value="" style="endArrow=classic;html=1;rounded=0;dashed=1;fillColor=#f5f5f5;strokeColor=#666666;entryX=0.5;entryY=0;entryDx=0;entryDy=0;" parent="1" target="0_Hv43hvPQ8Ro73fSGsz-40" edge="1">
          <mxGeometry width="50" height="50" relative="1" as="geometry">
            <mxPoint x="944.78" y="-150" as="sourcePoint" />
            <mxPoint x="945.01" y="-80" as="targetPoint" />
            <Array as="points" />
          </mxGeometry>
        </mxCell>
        <mxCell id="0_Hv43hvPQ8Ro73fSGsz-101" value="" style="endArrow=classic;html=1;rounded=0;dashed=1;fillColor=#f5f5f5;strokeColor=#666666;entryX=0.5;entryY=0;entryDx=0;entryDy=0;exitX=0.52;exitY=1.005;exitDx=0;exitDy=0;exitPerimeter=0;" parent="1" source="0_Hv43hvPQ8Ro73fSGsz-38" target="0_Hv43hvPQ8Ro73fSGsz-42" edge="1">
          <mxGeometry width="50" height="50" relative="1" as="geometry">
            <mxPoint x="940" y="-150" as="sourcePoint" />
            <mxPoint x="823" y="-50" as="targetPoint" />
            <Array as="points" />
          </mxGeometry>
        </mxCell>
        <mxCell id="0_Hv43hvPQ8Ro73fSGsz-102" value="" style="endArrow=classic;html=1;rounded=0;dashed=1;fillColor=#f5f5f5;strokeColor=#666666;entryX=0.5;entryY=0;entryDx=0;entryDy=0;" parent="1" target="0_Hv43hvPQ8Ro73fSGsz-41" edge="1">
          <mxGeometry width="50" height="50" relative="1" as="geometry">
            <mxPoint x="944.78" y="-150" as="sourcePoint" />
            <mxPoint x="945.01" y="-80" as="targetPoint" />
            <Array as="points" />
          </mxGeometry>
        </mxCell>
        <mxCell id="0_Hv43hvPQ8Ro73fSGsz-103" value="" style="endArrow=classic;html=1;rounded=0;dashed=1;fillColor=#f5f5f5;strokeColor=#666666;entryX=0.5;entryY=0;entryDx=0;entryDy=0;" parent="1" target="T0fwYKVUz0fpA-iBK2D4-11" edge="1">
          <mxGeometry width="50" height="50" relative="1" as="geometry">
            <mxPoint x="945" y="30" as="sourcePoint" />
            <mxPoint x="945" y="70" as="targetPoint" />
            <Array as="points" />
          </mxGeometry>
        </mxCell>
        <mxCell id="0_Hv43hvPQ8Ro73fSGsz-104" value="" style="endArrow=classic;html=1;rounded=0;dashed=1;fillColor=#f5f5f5;strokeColor=#666666;entryX=0.5;entryY=0;entryDx=0;entryDy=0;exitX=0.506;exitY=1.018;exitDx=0;exitDy=0;exitPerimeter=0;" parent="1" source="0_Hv43hvPQ8Ro73fSGsz-47" target="0_Hv43hvPQ8Ro73fSGsz-50" edge="1">
          <mxGeometry width="50" height="50" relative="1" as="geometry">
            <mxPoint x="950" y="140" as="sourcePoint" />
            <mxPoint x="944.71" y="160" as="targetPoint" />
            <Array as="points" />
          </mxGeometry>
        </mxCell>
        <mxCell id="0_Hv43hvPQ8Ro73fSGsz-105" value="" style="endArrow=classic;html=1;rounded=0;dashed=1;fillColor=#f5f5f5;strokeColor=#666666;entryX=0.5;entryY=0;entryDx=0;entryDy=0;" parent="1" edge="1">
          <mxGeometry width="50" height="50" relative="1" as="geometry">
            <mxPoint x="945" y="140" as="sourcePoint" />
            <mxPoint x="1060" y="180" as="targetPoint" />
            <Array as="points" />
          </mxGeometry>
        </mxCell>
        <mxCell id="0_Hv43hvPQ8Ro73fSGsz-106" value="" style="endArrow=classic;html=1;rounded=0;dashed=1;fillColor=#f5f5f5;strokeColor=#666666;entryX=0.5;entryY=0;entryDx=0;entryDy=0;" parent="1" target="0_Hv43hvPQ8Ro73fSGsz-51" edge="1">
          <mxGeometry width="50" height="50" relative="1" as="geometry">
            <mxPoint x="946" y="140" as="sourcePoint" />
            <mxPoint x="944.71" y="160" as="targetPoint" />
            <Array as="points" />
          </mxGeometry>
        </mxCell>
        <mxCell id="T0fwYKVUz0fpA-iBK2D4-3" value="random()" style="text;html=1;strokeColor=#6c8ebf;fillColor=#dae8fc;align=center;verticalAlign=middle;whiteSpace=wrap;rounded=0;" parent="1" vertex="1">
          <mxGeometry x="200" y="70" width="174" height="20" as="geometry" />
        </mxCell>
        <mxCell id="T0fwYKVUz0fpA-iBK2D4-7" value="size % hash(key)" style="text;html=1;strokeColor=#6c8ebf;fillColor=#dae8fc;align=center;verticalAlign=middle;whiteSpace=wrap;rounded=0;" parent="1" vertex="1">
          <mxGeometry x="374" y="70" width="176" height="20" as="geometry" />
        </mxCell>
        <mxCell id="T0fwYKVUz0fpA-iBK2D4-10" value="determineKafkaProducer(subscriber, key&lt;span style=&quot;background-color: initial;&quot;&gt;)&lt;br&gt;&lt;/span&gt;" style="text;html=1;align=center;verticalAlign=middle;resizable=0;points=[];autosize=1;strokeColor=none;fillColor=none;" parent="1" vertex="1">
          <mxGeometry x="260" y="90" width="240" height="30" as="geometry" />
        </mxCell>
        <mxCell id="T0fwYKVUz0fpA-iBK2D4-11" value="size % hash(key)" style="text;html=1;strokeColor=#6c8ebf;fillColor=#dae8fc;align=center;verticalAlign=middle;whiteSpace=wrap;rounded=0;dashed=1;" parent="1" vertex="1">
          <mxGeometry x="945" y="70" width="174" height="20" as="geometry" />
        </mxCell>
        <mxCell id="T0fwYKVUz0fpA-iBK2D4-12" value="random()" style="text;html=1;strokeColor=#6c8ebf;fillColor=#dae8fc;align=center;verticalAlign=middle;whiteSpace=wrap;rounded=0;dashed=1;" parent="1" vertex="1">
          <mxGeometry x="764" y="70" width="181" height="20" as="geometry" />
        </mxCell>
        <mxCell id="T0fwYKVUz0fpA-iBK2D4-14" value="" style="endArrow=classic;html=1;rounded=0;dashed=1;fillColor=#f5f5f5;strokeColor=#666666;exitX=0.5;exitY=1;exitDx=0;exitDy=0;entryX=0.5;entryY=0;entryDx=0;entryDy=0;" parent="1" source="0_Hv43hvPQ8Ro73fSGsz-42" target="T0fwYKVUz0fpA-iBK2D4-11" edge="1">
          <mxGeometry width="50" height="50" relative="1" as="geometry">
            <mxPoint x="955" y="40" as="sourcePoint" />
            <mxPoint x="1042" y="80" as="targetPoint" />
            <Array as="points" />
          </mxGeometry>
        </mxCell>
        <mxCell id="T0fwYKVUz0fpA-iBK2D4-15" value="" style="endArrow=classic;html=1;rounded=0;dashed=1;fillColor=#f5f5f5;strokeColor=#666666;exitX=0.5;exitY=1;exitDx=0;exitDy=0;entryX=0.27;entryY=0.011;entryDx=0;entryDy=0;entryPerimeter=0;" parent="1" source="0_Hv43hvPQ8Ro73fSGsz-40" target="T0fwYKVUz0fpA-iBK2D4-12" edge="1">
          <mxGeometry width="50" height="50" relative="1" as="geometry">
            <mxPoint x="965" y="50" as="sourcePoint" />
            <mxPoint x="1052" y="90" as="targetPoint" />
            <Array as="points" />
          </mxGeometry>
        </mxCell>
        <mxCell id="T0fwYKVUz0fpA-iBK2D4-18" value="Internal Kafka brokers" style="text;html=1;strokeColor=none;fillColor=none;align=center;verticalAlign=middle;whiteSpace=wrap;rounded=0;" parent="1" vertex="1">
          <mxGeometry x="600" y="-520" width="130" height="30" as="geometry" />
        </mxCell>
        <mxCell id="T0fwYKVUz0fpA-iBK2D4-20" value="" style="rounded=0;whiteSpace=wrap;html=1;fillColor=#cce5ff;strokeColor=#36393d;" parent="1" vertex="1">
          <mxGeometry x="180" y="-490" width="400" height="30" as="geometry" />
        </mxCell>
        <mxCell id="T0fwYKVUz0fpA-iBK2D4-16" value="pods/kafka brokers cluster 0" style="text;html=1;strokeColor=none;fillColor=none;align=center;verticalAlign=middle;whiteSpace=wrap;rounded=0;" parent="1" vertex="1">
          <mxGeometry x="289.5" y="-490" width="185.5" height="30" as="geometry" />
        </mxCell>
        <mxCell id="T0fwYKVUz0fpA-iBK2D4-21" value="" style="rounded=0;whiteSpace=wrap;html=1;fillColor=#cce5ff;strokeColor=#36393d;" parent="1" vertex="1">
          <mxGeometry x="600" y="-490" width="550" height="30" as="geometry" />
        </mxCell>
        <mxCell id="T0fwYKVUz0fpA-iBK2D4-19" value="pods/kafka brokers cluster 1" style="text;html=1;strokeColor=none;fillColor=none;align=center;verticalAlign=middle;whiteSpace=wrap;rounded=0;" parent="1" vertex="1">
          <mxGeometry x="844.75" y="-490" width="185.5" height="30" as="geometry" />
        </mxCell>
        <mxCell id="T0fwYKVUz0fpA-iBK2D4-22" value="External Service or MQ" style="text;html=1;strokeColor=none;fillColor=none;align=center;verticalAlign=middle;whiteSpace=wrap;rounded=0;" parent="1" vertex="1">
          <mxGeometry x="590" y="360" width="160" height="30" as="geometry" />
        </mxCell>
        <mxCell id="T0fwYKVUz0fpA-iBK2D4-23" value="3rd api server, ribbtmq server, kafka broker, rocketmq broker, ..." style="text;html=1;strokeColor=none;fillColor=none;align=center;verticalAlign=middle;whiteSpace=wrap;rounded=0;" parent="1" vertex="1">
          <mxGeometry x="455" y="390" width="420" height="30" as="geometry" />
        </mxCell>
      </root>
    </mxGraphModel>
  </diagram>
</mxfile>
